<?xml version="1.0" encoding="UTF-8" standalone="no"?>
<!DOCTYPE svg PUBLIC "-//W3C//DTD SVG 1.1//EN"
 "http://www.w3.org/Graphics/SVG/1.1/DTD/svg11.dtd">
<!-- Generated by graphviz version 2.40.1 (20161225.0304)
 -->
<!-- Title: dependencies Pages: 1 -->
<svg width="569pt" height="284pt"
 viewBox="0.00 0.00 569.00 284.00" xmlns="http://www.w3.org/2000/svg" xmlns:xlink="http://www.w3.org/1999/xlink">
<g id="graph0" class="graph" transform="scale(1 1) rotate(0) translate(4 280)">
<title>dependencies</title>
<polygon fill="#ffffff" stroke="transparent" points="-4,4 -4,-280 565,-280 565,4 -4,4"/>
<text text-anchor="start" x="259.5091" y="-42.4" font-family="sans-serif" font-weight="bold" font-size="14.00" fill="#000000">Legend</text>
<polygon fill="#ffffb3" stroke="transparent" points="46.5,-10 46.5,-30 66.5,-30 66.5,-10 46.5,-10"/>
<text text-anchor="start" x="70.129" y="-15.4" font-family="sans-serif" font-size="14.00" fill="#000000"> &#160;Declarations</text>
<polygon fill="#8dd3c7" stroke="transparent" points="159.5,-10 159.5,-30 179.5,-30 179.5,-10 159.5,-10"/>
<text text-anchor="start" x="183.2251" y="-15.4" font-family="sans-serif" font-size="14.00" fill="#000000"> &#160;Module</text>
<polygon fill="#80b1d3" stroke="transparent" points="245.5,-10 245.5,-30 265.5,-30 265.5,-10 245.5,-10"/>
<text text-anchor="start" x="269.2812" y="-15.4" font-family="sans-serif" font-size="14.00" fill="#000000"> &#160;Bootstrap</text>
<polygon fill="#fdb462" stroke="transparent" points="342.5,-10 342.5,-30 362.5,-30 362.5,-10 342.5,-10"/>
<text text-anchor="start" x="366.1732" y="-15.4" font-family="sans-serif" font-size="14.00" fill="#000000"> &#160;Providers</text>
<polygon fill="#fb8072" stroke="transparent" points="438.5,-10 438.5,-30 458.5,-30 458.5,-10 438.5,-10"/>
<text text-anchor="start" x="462.2258" y="-15.4" font-family="sans-serif" font-size="14.00" fill="#000000"> &#160;Exports</text>
<g id="clust1" class="cluster">
<title>cluster_D3Module</title>
<polygon fill="none" stroke="#000000" stroke-dasharray="1,5" points="8,-70 8,-268 553,-268 553,-70 8,-70"/>
</g>
<g id="clust3" class="cluster">
<title>cluster_D3Module_imports</title>
<polygon fill="none" stroke="#000000" points="191,-78 191,-130 319,-130 319,-78 191,-78"/>
</g>
<g id="clust4" class="cluster">
<title>cluster_D3Module_exports</title>
<polygon fill="none" stroke="#000000" points="16,-208 16,-260 545,-260 545,-208 16,-208"/>
</g>
<!-- CommonModule -->
<g id="node1" class="node">
<title>CommonModule</title>
<polygon fill="#8dd3c7" stroke="#000000" points="310.6681,-122 307.6681,-126 286.6681,-126 283.6681,-122 199.3319,-122 199.3319,-86 310.6681,-86 310.6681,-122"/>
<text text-anchor="middle" x="255" y="-99.8" font-family="Times,serif" font-size="14.00" fill="#000000">CommonModule</text>
</g>
<!-- D3Module -->
<g id="node2" class="node">
<title>D3Module</title>
<polygon fill="#8dd3c7" stroke="#000000" points="293.1572,-187 290.1572,-191 269.1572,-191 266.1572,-187 216.8428,-187 216.8428,-151 293.1572,-151 293.1572,-187"/>
<text text-anchor="middle" x="255" y="-164.8" font-family="Times,serif" font-size="14.00" fill="#000000">D3Module</text>
</g>
<!-- CommonModule&#45;&gt;D3Module -->
<g id="edge1" class="edge">
<title>CommonModule&#45;&gt;D3Module</title>
<path fill="none" stroke="#000000" d="M255,-122.1061C255,-122.1061 255,-140.991 255,-140.991"/>
<polygon fill="#000000" stroke="#000000" points="251.5001,-140.9909 255,-150.991 258.5001,-140.991 251.5001,-140.9909"/>
</g>
<!-- SampleComponent  -->
<g id="node3" class="node">
<title>SampleComponent </title>
<polygon fill="#fb8072" stroke="#000000" points="537.3255,-252 410.6745,-252 410.6745,-216 537.3255,-216 537.3255,-252"/>
<text text-anchor="middle" x="474" y="-229.8" font-family="Times,serif" font-size="14.00" fill="#000000">SampleComponent </text>
</g>
<!-- D3Module&#45;&gt;SampleComponent  -->
<g id="edge2" class="edge">
<title>D3Module&#45;&gt;SampleComponent </title>
<path fill="none" stroke="#000000" stroke-dasharray="5,2" d="M293.3975,-169C356.2058,-169 474,-169 474,-169 474,-169 474,-205.8939 474,-205.8939"/>
<polygon fill="#000000" stroke="#000000" points="470.5001,-205.8938 474,-215.8939 477.5001,-205.8939 470.5001,-205.8938"/>
</g>
<!-- BarchartComponent  -->
<g id="node4" class="node">
<title>BarchartComponent </title>
<polygon fill="#fb8072" stroke="#000000" points="392.5246,-252 259.4754,-252 259.4754,-216 392.5246,-216 392.5246,-252"/>
<text text-anchor="middle" x="326" y="-229.8" font-family="Times,serif" font-size="14.00" fill="#000000">BarchartComponent </text>
</g>
<!-- D3Module&#45;&gt;BarchartComponent  -->
<g id="edge3" class="edge">
<title>D3Module&#45;&gt;BarchartComponent </title>
<path fill="none" stroke="#000000" stroke-dasharray="5,2" d="M276.408,-187.1061C276.408,-187.1061 276.408,-205.991 276.408,-205.991"/>
<polygon fill="#000000" stroke="#000000" points="272.908,-205.9909 276.408,-215.991 279.908,-205.991 272.908,-205.9909"/>
</g>
<!-- SampleDirective  -->
<g id="node5" class="node">
<title>SampleDirective </title>
<polygon fill="#fb8072" stroke="#000000" points="241.5766,-252 128.4234,-252 128.4234,-216 241.5766,-216 241.5766,-252"/>
<text text-anchor="middle" x="185" y="-229.8" font-family="Times,serif" font-size="14.00" fill="#000000">SampleDirective </text>
</g>
<!-- D3Module&#45;&gt;SampleDirective  -->
<g id="edge4" class="edge">
<title>D3Module&#45;&gt;SampleDirective </title>
<path fill="none" stroke="#000000" stroke-dasharray="5,2" d="M229.2299,-187.1061C229.2299,-187.1061 229.2299,-205.991 229.2299,-205.991"/>
<polygon fill="#000000" stroke="#000000" points="225.7299,-205.9909 229.2299,-215.991 232.7299,-205.991 225.7299,-205.9909"/>
</g>
<!-- SamplePipe  -->
<g id="node6" class="node">
<title>SamplePipe </title>
<polygon fill="#fb8072" stroke="#000000" points="110.3816,-252 23.6184,-252 23.6184,-216 110.3816,-216 110.3816,-252"/>
<text text-anchor="middle" x="67" y="-229.8" font-family="Times,serif" font-size="14.00" fill="#000000">SamplePipe </text>
</g>
<!-- D3Module&#45;&gt;SamplePipe  -->
<g id="edge5" class="edge">
<title>D3Module&#45;&gt;SamplePipe </title>
<path fill="none" stroke="#000000" stroke-dasharray="5,2" d="M216.5017,-169C161.4999,-169 67,-169 67,-169 67,-169 67,-205.8939 67,-205.8939"/>
<polygon fill="#000000" stroke="#000000" points="63.5001,-205.8938 67,-215.8939 70.5001,-205.8939 63.5001,-205.8938"/>
</g>
</g>
</svg>
