<?xml version="1.0" encoding="UTF-8" standalone="no"?>
<!DOCTYPE svg PUBLIC "-//W3C//DTD SVG 1.1//EN"
 "http://www.w3.org/Graphics/SVG/1.1/DTD/svg11.dtd">
<!-- Generated by graphviz version 2.40.1 (20161225.0304)
 -->
<!-- Title: dependencies Pages: 1 -->
<svg width="504pt" height="284pt"
 viewBox="0.00 0.00 504.00 284.00" xmlns="http://www.w3.org/2000/svg" xmlns:xlink="http://www.w3.org/1999/xlink">
<g id="graph0" class="graph" transform="scale(1 1) rotate(0) translate(4 280)">
<title>dependencies</title>
<polygon fill="#ffffff" stroke="transparent" points="-4,4 -4,-280 500,-280 500,4 -4,4"/>
<text text-anchor="start" x="227.0091" y="-42.4" font-family="sans-serif" font-weight="bold" font-size="14.00" fill="#000000">Legend</text>
<polygon fill="#ffffb3" stroke="transparent" points="14,-10 14,-30 34,-30 34,-10 14,-10"/>
<text text-anchor="start" x="37.629" y="-15.4" font-family="sans-serif" font-size="14.00" fill="#000000"> &#160;Declarations</text>
<polygon fill="#8dd3c7" stroke="transparent" points="127,-10 127,-30 147,-30 147,-10 127,-10"/>
<text text-anchor="start" x="150.7251" y="-15.4" font-family="sans-serif" font-size="14.00" fill="#000000"> &#160;Module</text>
<polygon fill="#80b1d3" stroke="transparent" points="213,-10 213,-30 233,-30 233,-10 213,-10"/>
<text text-anchor="start" x="236.7812" y="-15.4" font-family="sans-serif" font-size="14.00" fill="#000000"> &#160;Bootstrap</text>
<polygon fill="#fdb462" stroke="transparent" points="310,-10 310,-30 330,-30 330,-10 310,-10"/>
<text text-anchor="start" x="333.6732" y="-15.4" font-family="sans-serif" font-size="14.00" fill="#000000"> &#160;Providers</text>
<polygon fill="#fb8072" stroke="transparent" points="406,-10 406,-30 426,-30 426,-10 406,-10"/>
<text text-anchor="start" x="429.7258" y="-15.4" font-family="sans-serif" font-size="14.00" fill="#000000"> &#160;Exports</text>
<g id="clust1" class="cluster">
<title>cluster_D3Module</title>
<polygon fill="none" stroke="#000000" stroke-dasharray="1,5" points="95,-70 95,-268 401,-268 401,-70 95,-70"/>
</g>
<g id="clust3" class="cluster">
<title>cluster_D3Module_imports</title>
<polygon fill="none" stroke="#000000" points="181,-78 181,-130 309,-130 309,-78 181,-78"/>
</g>
<g id="clust4" class="cluster">
<title>cluster_D3Module_exports</title>
<polygon fill="none" stroke="#000000" points="103,-208 103,-260 393,-260 393,-208 103,-208"/>
</g>
<!-- CommonModule -->
<g id="node1" class="node">
<title>CommonModule</title>
<polygon fill="#8dd3c7" stroke="#000000" points="300.6681,-122 297.6681,-126 276.6681,-126 273.6681,-122 189.3319,-122 189.3319,-86 300.6681,-86 300.6681,-122"/>
<text text-anchor="middle" x="245" y="-99.8" font-family="Times,serif" font-size="14.00" fill="#000000">CommonModule</text>
</g>
<!-- D3Module -->
<g id="node2" class="node">
<title>D3Module</title>
<polygon fill="#8dd3c7" stroke="#000000" points="283.1572,-187 280.1572,-191 259.1572,-191 256.1572,-187 206.8428,-187 206.8428,-151 283.1572,-151 283.1572,-187"/>
<text text-anchor="middle" x="245" y="-164.8" font-family="Times,serif" font-size="14.00" fill="#000000">D3Module</text>
</g>
<!-- CommonModule&#45;&gt;D3Module -->
<g id="edge1" class="edge">
<title>CommonModule&#45;&gt;D3Module</title>
<path fill="none" stroke="#000000" d="M245,-122.1061C245,-122.1061 245,-140.991 245,-140.991"/>
<polygon fill="#000000" stroke="#000000" points="241.5001,-140.9909 245,-150.991 248.5001,-140.991 241.5001,-140.9909"/>
</g>
<!-- BarchartComponent  -->
<g id="node3" class="node">
<title>BarchartComponent </title>
<polygon fill="#fb8072" stroke="#000000" points="384.5246,-252 251.4754,-252 251.4754,-216 384.5246,-216 384.5246,-252"/>
<text text-anchor="middle" x="318" y="-229.8" font-family="Times,serif" font-size="14.00" fill="#000000">BarchartComponent </text>
</g>
<!-- D3Module&#45;&gt;BarchartComponent  -->
<g id="edge2" class="edge">
<title>D3Module&#45;&gt;BarchartComponent </title>
<path fill="none" stroke="#000000" stroke-dasharray="5,2" d="M267.408,-187.1061C267.408,-187.1061 267.408,-205.991 267.408,-205.991"/>
<polygon fill="#000000" stroke="#000000" points="263.908,-205.9909 267.408,-215.991 270.908,-205.991 263.908,-205.9909"/>
</g>
<!-- SGBarComponent  -->
<g id="node4" class="node">
<title>SGBarComponent </title>
<polygon fill="#fb8072" stroke="#000000" points="233.4334,-252 110.5666,-252 110.5666,-216 233.4334,-216 233.4334,-252"/>
<text text-anchor="middle" x="172" y="-229.8" font-family="Times,serif" font-size="14.00" fill="#000000">SGBarComponent </text>
</g>
<!-- D3Module&#45;&gt;SGBarComponent  -->
<g id="edge3" class="edge">
<title>D3Module&#45;&gt;SGBarComponent </title>
<path fill="none" stroke="#000000" stroke-dasharray="5,2" d="M220.0693,-187.1061C220.0693,-187.1061 220.0693,-205.991 220.0693,-205.991"/>
<polygon fill="#000000" stroke="#000000" points="216.5693,-205.9909 220.0693,-215.991 223.5693,-205.991 216.5693,-205.9909"/>
</g>
</g>
</svg>
