<?xml version="1.0" encoding="UTF-8" standalone="no"?>
<!DOCTYPE svg PUBLIC "-//W3C//DTD SVG 1.1//EN"
 "http://www.w3.org/Graphics/SVG/1.1/DTD/svg11.dtd">
<!-- Generated by graphviz version 2.40.1 (20161225.0304)
 -->
<!-- Title: dependencies Pages: 1 -->
<svg width="978pt" height="284pt"
 viewBox="0.00 0.00 978.00 284.00" xmlns="http://www.w3.org/2000/svg" xmlns:xlink="http://www.w3.org/1999/xlink">
<g id="graph0" class="graph" transform="scale(1 1) rotate(0) translate(4 280)">
<title>dependencies</title>
<polygon fill="#ffffff" stroke="transparent" points="-4,4 -4,-280 974,-280 974,4 -4,4"/>
<text text-anchor="start" x="464.0091" y="-42.4" font-family="sans-serif" font-weight="bold" font-size="14.00" fill="#000000">Legend</text>
<polygon fill="#ffffb3" stroke="transparent" points="251,-10 251,-30 271,-30 271,-10 251,-10"/>
<text text-anchor="start" x="274.629" y="-15.4" font-family="sans-serif" font-size="14.00" fill="#000000"> &#160;Declarations</text>
<polygon fill="#8dd3c7" stroke="transparent" points="364,-10 364,-30 384,-30 384,-10 364,-10"/>
<text text-anchor="start" x="387.7251" y="-15.4" font-family="sans-serif" font-size="14.00" fill="#000000"> &#160;Module</text>
<polygon fill="#80b1d3" stroke="transparent" points="450,-10 450,-30 470,-30 470,-10 450,-10"/>
<text text-anchor="start" x="473.7812" y="-15.4" font-family="sans-serif" font-size="14.00" fill="#000000"> &#160;Bootstrap</text>
<polygon fill="#fdb462" stroke="transparent" points="547,-10 547,-30 567,-30 567,-10 547,-10"/>
<text text-anchor="start" x="570.6732" y="-15.4" font-family="sans-serif" font-size="14.00" fill="#000000"> &#160;Providers</text>
<polygon fill="#fb8072" stroke="transparent" points="643,-10 643,-30 663,-30 663,-10 643,-10"/>
<text text-anchor="start" x="666.7258" y="-15.4" font-family="sans-serif" font-size="14.00" fill="#000000"> &#160;Exports</text>
<g id="clust1" class="cluster">
<title>cluster_ChartModule</title>
<polygon fill="none" stroke="#000000" stroke-dasharray="1,5" points="8,-70 8,-268 962,-268 962,-70 8,-70"/>
</g>
<g id="clust2" class="cluster">
<title>cluster_ChartModule_declarations</title>
<polygon fill="none" stroke="#000000" points="298,-78 298,-130 954,-130 954,-78 298,-78"/>
</g>
<g id="clust7" class="cluster">
<title>cluster_ChartModule_imports</title>
<polygon fill="none" stroke="#000000" points="162,-78 162,-130 290,-130 290,-78 162,-78"/>
</g>
<g id="clust8" class="cluster">
<title>cluster_ChartModule_exports</title>
<polygon fill="none" stroke="#000000" points="117,-208 117,-260 789,-260 789,-208 117,-208"/>
</g>
<g id="clust10" class="cluster">
<title>cluster_ChartModule_providers</title>
<polygon fill="none" stroke="#000000" points="16,-78 16,-130 154,-130 154,-78 16,-78"/>
</g>
<!-- PieChartComponent -->
<g id="node1" class="node">
<title>PieChartComponent</title>
<polygon fill="#ffffb3" stroke="#000000" points="946.323,-122 815.677,-122 815.677,-86 946.323,-86 946.323,-122"/>
<text text-anchor="middle" x="881" y="-99.8" font-family="Times,serif" font-size="14.00" fill="#000000">PieChartComponent</text>
</g>
<!-- ChartModule -->
<g id="node5" class="node">
<title>ChartModule</title>
<polygon fill="#8dd3c7" stroke="#000000" points="499.1529,-187 496.1529,-191 475.1529,-191 472.1529,-187 408.8471,-187 408.8471,-151 499.1529,-151 499.1529,-187"/>
<text text-anchor="middle" x="454" y="-164.8" font-family="Times,serif" font-size="14.00" fill="#000000">ChartModule</text>
</g>
<!-- PieChartComponent&#45;&gt;ChartModule -->
<g id="edge1" class="edge">
<title>PieChartComponent&#45;&gt;ChartModule</title>
<path fill="none" stroke="#000000" d="M881,-122.1061C881,-141.3391 881,-169 881,-169 881,-169 509.2922,-169 509.2922,-169"/>
<polygon fill="#000000" stroke="#000000" points="509.2923,-165.5001 499.2922,-169 509.2922,-172.5001 509.2923,-165.5001"/>
</g>
<!-- DoughnutChartComponent -->
<g id="node2" class="node">
<title>DoughnutChartComponent</title>
<polygon fill="#ffffb3" stroke="#000000" points="798.4326,-122 629.5674,-122 629.5674,-86 798.4326,-86 798.4326,-122"/>
<text text-anchor="middle" x="714" y="-99.8" font-family="Times,serif" font-size="14.00" fill="#000000">DoughnutChartComponent</text>
</g>
<!-- DoughnutChartComponent&#45;&gt;ChartModule -->
<g id="edge2" class="edge">
<title>DoughnutChartComponent&#45;&gt;ChartModule</title>
<path fill="none" stroke="#000000" d="M638.4363,-122.027C638.4363,-138.3976 638.4363,-160 638.4363,-160 638.4363,-160 509.591,-160 509.591,-160"/>
<polygon fill="#000000" stroke="#000000" points="509.5911,-156.5001 499.591,-160 509.591,-163.5001 509.5911,-156.5001"/>
</g>
<!-- HMBChartComponent -->
<g id="node3" class="node">
<title>HMBChartComponent</title>
<polygon fill="#ffffb3" stroke="#000000" points="612.323,-122 467.677,-122 467.677,-86 612.323,-86 612.323,-122"/>
<text text-anchor="middle" x="540" y="-99.8" font-family="Times,serif" font-size="14.00" fill="#000000">HMBChartComponent</text>
</g>
<!-- HMBChartComponent&#45;&gt;ChartModule -->
<g id="edge3" class="edge">
<title>HMBChartComponent&#45;&gt;ChartModule</title>
<path fill="none" stroke="#000000" d="M483.5824,-122.1061C483.5824,-122.1061 483.5824,-140.991 483.5824,-140.991"/>
<polygon fill="#000000" stroke="#000000" points="480.0825,-140.9909 483.5824,-150.991 487.0825,-140.991 480.0825,-140.9909"/>
</g>
<!-- VMBChartComponent -->
<g id="node4" class="node">
<title>VMBChartComponent</title>
<polygon fill="#ffffb3" stroke="#000000" points="450.323,-122 305.677,-122 305.677,-86 450.323,-86 450.323,-122"/>
<text text-anchor="middle" x="378" y="-99.8" font-family="Times,serif" font-size="14.00" fill="#000000">VMBChartComponent</text>
</g>
<!-- VMBChartComponent&#45;&gt;ChartModule -->
<g id="edge4" class="edge">
<title>VMBChartComponent&#45;&gt;ChartModule</title>
<path fill="none" stroke="#000000" d="M429.4176,-122.1061C429.4176,-122.1061 429.4176,-140.991 429.4176,-140.991"/>
<polygon fill="#000000" stroke="#000000" points="425.9177,-140.9909 429.4176,-150.991 432.9177,-140.991 425.9177,-140.9909"/>
</g>
<!-- PieChartComponent  -->
<g id="node7" class="node">
<title>PieChartComponent </title>
<polygon fill="#fb8072" stroke="#000000" points="780.8227,-252 647.1773,-252 647.1773,-216 780.8227,-216 780.8227,-252"/>
<text text-anchor="middle" x="714" y="-229.8" font-family="Times,serif" font-size="14.00" fill="#000000">PieChartComponent </text>
</g>
<!-- ChartModule&#45;&gt;PieChartComponent  -->
<g id="edge6" class="edge">
<title>ChartModule&#45;&gt;PieChartComponent </title>
<path fill="none" stroke="#000000" stroke-dasharray="5,2" d="M499.2885,-178C573.7803,-178 714,-178 714,-178 714,-178 714,-205.973 714,-205.973"/>
<polygon fill="#000000" stroke="#000000" points="710.5001,-205.973 714,-215.973 717.5001,-205.973 710.5001,-205.973"/>
</g>
<!-- DoughnutChartComponent  -->
<g id="node8" class="node">
<title>DoughnutChartComponent </title>
<polygon fill="#fb8072" stroke="#000000" points="628.932,-252 457.068,-252 457.068,-216 628.932,-216 628.932,-252"/>
<text text-anchor="middle" x="543" y="-229.8" font-family="Times,serif" font-size="14.00" fill="#000000">DoughnutChartComponent </text>
</g>
<!-- ChartModule&#45;&gt;DoughnutChartComponent  -->
<g id="edge7" class="edge">
<title>ChartModule&#45;&gt;DoughnutChartComponent </title>
<path fill="none" stroke="#000000" stroke-dasharray="5,2" d="M478.1801,-187.1061C478.1801,-187.1061 478.1801,-205.991 478.1801,-205.991"/>
<polygon fill="#000000" stroke="#000000" points="474.6801,-205.9909 478.1801,-215.991 481.6801,-205.991 474.6801,-205.9909"/>
</g>
<!-- HMBChartComponent  -->
<g id="node9" class="node">
<title>HMBChartComponent </title>
<polygon fill="#fb8072" stroke="#000000" points="438.8227,-252 291.1773,-252 291.1773,-216 438.8227,-216 438.8227,-252"/>
<text text-anchor="middle" x="365" y="-229.8" font-family="Times,serif" font-size="14.00" fill="#000000">HMBChartComponent </text>
</g>
<!-- ChartModule&#45;&gt;HMBChartComponent  -->
<g id="edge8" class="edge">
<title>ChartModule&#45;&gt;HMBChartComponent </title>
<path fill="none" stroke="#000000" stroke-dasharray="5,2" d="M423.7926,-187.1061C423.7926,-187.1061 423.7926,-205.991 423.7926,-205.991"/>
<polygon fill="#000000" stroke="#000000" points="420.2927,-205.9909 423.7926,-215.991 427.2927,-205.991 420.2927,-205.9909"/>
</g>
<!-- VMBChartComponent  -->
<g id="node10" class="node">
<title>VMBChartComponent </title>
<polygon fill="#fb8072" stroke="#000000" points="272.8227,-252 125.1773,-252 125.1773,-216 272.8227,-216 272.8227,-252"/>
<text text-anchor="middle" x="199" y="-229.8" font-family="Times,serif" font-size="14.00" fill="#000000">VMBChartComponent </text>
</g>
<!-- ChartModule&#45;&gt;VMBChartComponent  -->
<g id="edge9" class="edge">
<title>ChartModule&#45;&gt;VMBChartComponent </title>
<path fill="none" stroke="#000000" stroke-dasharray="5,2" d="M408.6273,-178C340.9768,-178 221.5388,-178 221.5388,-178 221.5388,-178 221.5388,-205.973 221.5388,-205.973"/>
<polygon fill="#000000" stroke="#000000" points="218.0388,-205.973 221.5388,-215.973 225.0388,-205.973 218.0388,-205.973"/>
</g>
<!-- CommonModule -->
<g id="node6" class="node">
<title>CommonModule</title>
<polygon fill="#8dd3c7" stroke="#000000" points="281.6681,-122 278.6681,-126 257.6681,-126 254.6681,-122 170.3319,-122 170.3319,-86 281.6681,-86 281.6681,-122"/>
<text text-anchor="middle" x="226" y="-99.8" font-family="Times,serif" font-size="14.00" fill="#000000">CommonModule</text>
</g>
<!-- CommonModule&#45;&gt;ChartModule -->
<g id="edge5" class="edge">
<title>CommonModule&#45;&gt;ChartModule</title>
<path fill="none" stroke="#000000" d="M277.3726,-122.027C277.3726,-138.3976 277.3726,-160 277.3726,-160 277.3726,-160 398.514,-160 398.514,-160"/>
<polygon fill="#000000" stroke="#000000" points="398.5141,-163.5001 408.514,-160 398.514,-156.5001 398.5141,-163.5001"/>
</g>
<!-- ChartService -->
<g id="node11" class="node">
<title>ChartService</title>
<ellipse fill="#fdb462" stroke="#000000" cx="85" cy="-104" rx="61.3916" ry="18"/>
<text text-anchor="middle" x="85" y="-99.8" font-family="Times,serif" font-size="14.00" fill="#000000">ChartService</text>
</g>
<!-- ChartService&#45;&gt;ChartModule -->
<g id="edge10" class="edge">
<title>ChartService&#45;&gt;ChartModule</title>
<path fill="none" stroke="#000000" d="M135.7672,-114.1563C135.7672,-132.4375 135.7672,-169 135.7672,-169 135.7672,-169 398.743,-169 398.743,-169"/>
<polygon fill="#000000" stroke="#000000" points="398.743,-172.5001 408.743,-169 398.7429,-165.5001 398.743,-172.5001"/>
</g>
</g>
</svg>
