<?xml version="1.0" encoding="UTF-8" standalone="no"?>
<!DOCTYPE svg PUBLIC "-//W3C//DTD SVG 1.1//EN"
 "http://www.w3.org/Graphics/SVG/1.1/DTD/svg11.dtd">
<!-- Generated by graphviz version 2.40.1 (20161225.0304)
 -->
<!-- Title: dependencies Pages: 1 -->
<svg width="504pt" height="211pt"
 viewBox="0.00 0.00 504.00 211.00" xmlns="http://www.w3.org/2000/svg" xmlns:xlink="http://www.w3.org/1999/xlink">
<g id="graph0" class="graph" transform="scale(1 1) rotate(0) translate(4 207)">
<title>dependencies</title>
<polygon fill="#ffffff" stroke="transparent" points="-4,4 -4,-207 500,-207 500,4 -4,4"/>
<text text-anchor="start" x="227.0091" y="-42.4" font-family="sans-serif" font-weight="bold" font-size="14.00" fill="#000000">Legend</text>
<polygon fill="#ffffb3" stroke="transparent" points="14,-10 14,-30 34,-30 34,-10 14,-10"/>
<text text-anchor="start" x="37.629" y="-15.4" font-family="sans-serif" font-size="14.00" fill="#000000"> &#160;Declarations</text>
<polygon fill="#8dd3c7" stroke="transparent" points="127,-10 127,-30 147,-30 147,-10 127,-10"/>
<text text-anchor="start" x="150.7251" y="-15.4" font-family="sans-serif" font-size="14.00" fill="#000000"> &#160;Module</text>
<polygon fill="#80b1d3" stroke="transparent" points="213,-10 213,-30 233,-30 233,-10 213,-10"/>
<text text-anchor="start" x="236.7812" y="-15.4" font-family="sans-serif" font-size="14.00" fill="#000000"> &#160;Bootstrap</text>
<polygon fill="#fdb462" stroke="transparent" points="310,-10 310,-30 330,-30 330,-10 310,-10"/>
<text text-anchor="start" x="333.6732" y="-15.4" font-family="sans-serif" font-size="14.00" fill="#000000"> &#160;Providers</text>
<polygon fill="#fb8072" stroke="transparent" points="406,-10 406,-30 426,-30 426,-10 406,-10"/>
<text text-anchor="start" x="429.7258" y="-15.4" font-family="sans-serif" font-size="14.00" fill="#000000"> &#160;Exports</text>
<g id="clust1" class="cluster">
<title>cluster_ChartModule</title>
<polygon fill="none" stroke="#000000" stroke-dasharray="1,5" points="103,-70 103,-195 393,-195 393,-70 103,-70"/>
</g>
<g id="clust3" class="cluster">
<title>cluster_ChartModule_imports</title>
<polygon fill="none" stroke="#000000" points="257,-78 257,-130 385,-130 385,-78 257,-78"/>
</g>
<g id="clust6" class="cluster">
<title>cluster_ChartModule_providers</title>
<polygon fill="none" stroke="#000000" points="111,-78 111,-130 249,-130 249,-78 111,-78"/>
</g>
<!-- CommonModule -->
<g id="node1" class="node">
<title>CommonModule</title>
<polygon fill="#8dd3c7" stroke="#000000" points="376.6681,-122 373.6681,-126 352.6681,-126 349.6681,-122 265.3319,-122 265.3319,-86 376.6681,-86 376.6681,-122"/>
<text text-anchor="middle" x="321" y="-99.8" font-family="Times,serif" font-size="14.00" fill="#000000">CommonModule</text>
</g>
<!-- ChartModule -->
<g id="node2" class="node">
<title>ChartModule</title>
<polygon fill="#8dd3c7" stroke="#000000" points="295.1529,-187 292.1529,-191 271.1529,-191 268.1529,-187 204.8471,-187 204.8471,-151 295.1529,-151 295.1529,-187"/>
<text text-anchor="middle" x="250" y="-164.8" font-family="Times,serif" font-size="14.00" fill="#000000">ChartModule</text>
</g>
<!-- CommonModule&#45;&gt;ChartModule -->
<g id="edge1" class="edge">
<title>CommonModule&#45;&gt;ChartModule</title>
<path fill="none" stroke="#000000" d="M280.2462,-122.1061C280.2462,-122.1061 280.2462,-140.991 280.2462,-140.991"/>
<polygon fill="#000000" stroke="#000000" points="276.7462,-140.9909 280.2462,-150.991 283.7462,-140.991 276.7462,-140.9909"/>
</g>
<!-- ChartService -->
<g id="node3" class="node">
<title>ChartService</title>
<ellipse fill="#fdb462" stroke="#000000" cx="180" cy="-104" rx="61.3916" ry="18"/>
<text text-anchor="middle" x="180" y="-99.8" font-family="Times,serif" font-size="14.00" fill="#000000">ChartService</text>
</g>
<!-- ChartService&#45;&gt;ChartModule -->
<g id="edge2" class="edge">
<title>ChartService&#45;&gt;ChartModule</title>
<path fill="none" stroke="#000000" d="M223.0598,-116.8419C223.0598,-116.8419 223.0598,-140.5231 223.0598,-140.5231"/>
<polygon fill="#000000" stroke="#000000" points="219.5599,-140.523 223.0598,-150.5231 226.5599,-140.5231 219.5599,-140.523"/>
</g>
</g>
</svg>
