<?xml version="1.0" encoding="UTF-8" standalone="no"?>
<!DOCTYPE svg PUBLIC "-//W3C//DTD SVG 1.1//EN"
 "http://www.w3.org/Graphics/SVG/1.1/DTD/svg11.dtd">
<!-- Generated by graphviz version 2.40.1 (20161225.0304)
 -->
<!-- Title: dependencies Pages: 1 -->
<svg width="544pt" height="284pt"
 viewBox="0.00 0.00 544.00 284.00" xmlns="http://www.w3.org/2000/svg" xmlns:xlink="http://www.w3.org/1999/xlink">
<g id="graph0" class="graph" transform="scale(1 1) rotate(0) translate(4 280)">
<title>dependencies</title>
<polygon fill="#ffffff" stroke="transparent" points="-4,4 -4,-280 540,-280 540,4 -4,4"/>
<text text-anchor="start" x="247.0091" y="-42.4" font-family="sans-serif" font-weight="bold" font-size="14.00" fill="#000000">Legend</text>
<polygon fill="#ffffb3" stroke="transparent" points="34,-10 34,-30 54,-30 54,-10 34,-10"/>
<text text-anchor="start" x="57.629" y="-15.4" font-family="sans-serif" font-size="14.00" fill="#000000"> &#160;Declarations</text>
<polygon fill="#8dd3c7" stroke="transparent" points="147,-10 147,-30 167,-30 167,-10 147,-10"/>
<text text-anchor="start" x="170.7251" y="-15.4" font-family="sans-serif" font-size="14.00" fill="#000000"> &#160;Module</text>
<polygon fill="#80b1d3" stroke="transparent" points="233,-10 233,-30 253,-30 253,-10 233,-10"/>
<text text-anchor="start" x="256.7812" y="-15.4" font-family="sans-serif" font-size="14.00" fill="#000000"> &#160;Bootstrap</text>
<polygon fill="#fdb462" stroke="transparent" points="330,-10 330,-30 350,-30 350,-10 330,-10"/>
<text text-anchor="start" x="353.6732" y="-15.4" font-family="sans-serif" font-size="14.00" fill="#000000"> &#160;Providers</text>
<polygon fill="#fb8072" stroke="transparent" points="426,-10 426,-30 446,-30 446,-10 426,-10"/>
<text text-anchor="start" x="449.7258" y="-15.4" font-family="sans-serif" font-size="14.00" fill="#000000"> &#160;Exports</text>
<g id="clust1" class="cluster">
<title>cluster_D3Module</title>
<polygon fill="none" stroke="#000000" stroke-dasharray="1,5" points="8,-70 8,-268 528,-268 528,-70 8,-70"/>
</g>
<g id="clust2" class="cluster">
<title>cluster_D3Module_declarations</title>
<polygon fill="none" stroke="#000000" points="152,-78 152,-130 520,-130 520,-78 152,-78"/>
</g>
<g id="clust6" class="cluster">
<title>cluster_D3Module_imports</title>
<polygon fill="none" stroke="#000000" points="16,-78 16,-130 144,-130 144,-78 16,-78"/>
</g>
<g id="clust7" class="cluster">
<title>cluster_D3Module_exports</title>
<polygon fill="none" stroke="#000000" points="87,-208 87,-260 465,-260 465,-208 87,-208"/>
</g>
<!-- SampleComponent -->
<g id="node1" class="node">
<title>SampleComponent</title>
<polygon fill="#ffffb3" stroke="#000000" points="511.8258,-122 388.1742,-122 388.1742,-86 511.8258,-86 511.8258,-122"/>
<text text-anchor="middle" x="450" y="-99.8" font-family="Times,serif" font-size="14.00" fill="#000000">SampleComponent</text>
</g>
<!-- D3Module -->
<g id="node4" class="node">
<title>D3Module</title>
<polygon fill="#8dd3c7" stroke="#000000" points="294.1572,-187 291.1572,-191 270.1572,-191 267.1572,-187 217.8428,-187 217.8428,-151 294.1572,-151 294.1572,-187"/>
<text text-anchor="middle" x="256" y="-164.8" font-family="Times,serif" font-size="14.00" fill="#000000">D3Module</text>
</g>
<!-- SampleComponent&#45;&gt;D3Module -->
<g id="edge1" class="edge">
<title>SampleComponent&#45;&gt;D3Module</title>
<path fill="none" stroke="#000000" d="M422.875,-122.0225C422.875,-139.3734 422.875,-163 422.875,-163 422.875,-163 304.2845,-163 304.2845,-163"/>
<polygon fill="#000000" stroke="#000000" points="304.2845,-159.5001 294.2845,-163 304.2845,-166.5001 304.2845,-159.5001"/>
</g>
<!-- SampleDirective -->
<g id="node2" class="node">
<title>SampleDirective</title>
<polygon fill="#ffffb3" stroke="#000000" points="370.0758,-122 259.9242,-122 259.9242,-86 370.0758,-86 370.0758,-122"/>
<text text-anchor="middle" x="315" y="-99.8" font-family="Times,serif" font-size="14.00" fill="#000000">SampleDirective</text>
</g>
<!-- SampleDirective&#45;&gt;D3Module -->
<g id="edge2" class="edge">
<title>SampleDirective&#45;&gt;D3Module</title>
<path fill="none" stroke="#000000" d="M277.1452,-122.1061C277.1452,-122.1061 277.1452,-140.991 277.1452,-140.991"/>
<polygon fill="#000000" stroke="#000000" points="273.6452,-140.9909 277.1452,-150.991 280.6452,-140.991 273.6452,-140.9909"/>
</g>
<!-- SamplePipe -->
<g id="node3" class="node">
<title>SamplePipe</title>
<polygon fill="#ffffb3" stroke="#000000" points="242.3809,-122 159.6191,-122 159.6191,-86 242.3809,-86 242.3809,-122"/>
<text text-anchor="middle" x="201" y="-99.8" font-family="Times,serif" font-size="14.00" fill="#000000">SamplePipe</text>
</g>
<!-- SamplePipe&#45;&gt;D3Module -->
<g id="edge3" class="edge">
<title>SamplePipe&#45;&gt;D3Module</title>
<path fill="none" stroke="#000000" d="M230.0561,-122.1061C230.0561,-122.1061 230.0561,-140.991 230.0561,-140.991"/>
<polygon fill="#000000" stroke="#000000" points="226.5562,-140.9909 230.0561,-150.991 233.5562,-140.991 226.5562,-140.9909"/>
</g>
<!-- SampleComponent  -->
<g id="node6" class="node">
<title>SampleComponent </title>
<polygon fill="#fb8072" stroke="#000000" points="457.3255,-252 330.6745,-252 330.6745,-216 457.3255,-216 457.3255,-252"/>
<text text-anchor="middle" x="394" y="-229.8" font-family="Times,serif" font-size="14.00" fill="#000000">SampleComponent </text>
</g>
<!-- D3Module&#45;&gt;SampleComponent  -->
<g id="edge5" class="edge">
<title>D3Module&#45;&gt;SampleComponent </title>
<path fill="none" stroke="#000000" stroke-dasharray="5,2" d="M294.3605,-175C320.4715,-175 350.3126,-175 350.3126,-175 350.3126,-175 350.3126,-205.9775 350.3126,-205.9775"/>
<polygon fill="#000000" stroke="#000000" points="346.8127,-205.9774 350.3126,-215.9775 353.8127,-205.9775 346.8127,-205.9774"/>
</g>
<!-- SampleDirective  -->
<g id="node7" class="node">
<title>SampleDirective </title>
<polygon fill="#fb8072" stroke="#000000" points="312.5766,-252 199.4234,-252 199.4234,-216 312.5766,-216 312.5766,-252"/>
<text text-anchor="middle" x="256" y="-229.8" font-family="Times,serif" font-size="14.00" fill="#000000">SampleDirective </text>
</g>
<!-- D3Module&#45;&gt;SampleDirective  -->
<g id="edge6" class="edge">
<title>D3Module&#45;&gt;SampleDirective </title>
<path fill="none" stroke="#000000" stroke-dasharray="5,2" d="M256,-187.1061C256,-187.1061 256,-205.991 256,-205.991"/>
<polygon fill="#000000" stroke="#000000" points="252.5001,-205.9909 256,-215.991 259.5001,-205.991 252.5001,-205.9909"/>
</g>
<!-- SamplePipe  -->
<g id="node8" class="node">
<title>SamplePipe </title>
<polygon fill="#fb8072" stroke="#000000" points="181.3816,-252 94.6184,-252 94.6184,-216 181.3816,-216 181.3816,-252"/>
<text text-anchor="middle" x="138" y="-229.8" font-family="Times,serif" font-size="14.00" fill="#000000">SamplePipe </text>
</g>
<!-- D3Module&#45;&gt;SamplePipe  -->
<g id="edge7" class="edge">
<title>D3Module&#45;&gt;SamplePipe </title>
<path fill="none" stroke="#000000" stroke-dasharray="5,2" d="M217.6954,-175C194.8973,-175 170.375,-175 170.375,-175 170.375,-175 170.375,-205.9775 170.375,-205.9775"/>
<polygon fill="#000000" stroke="#000000" points="166.8751,-205.9774 170.375,-215.9775 173.8751,-205.9775 166.8751,-205.9774"/>
</g>
<!-- CommonModule -->
<g id="node5" class="node">
<title>CommonModule</title>
<polygon fill="#8dd3c7" stroke="#000000" points="135.6681,-122 132.6681,-126 111.6681,-126 108.6681,-122 24.3319,-122 24.3319,-86 135.6681,-86 135.6681,-122"/>
<text text-anchor="middle" x="80" y="-99.8" font-family="Times,serif" font-size="14.00" fill="#000000">CommonModule</text>
</g>
<!-- CommonModule&#45;&gt;D3Module -->
<g id="edge4" class="edge">
<title>CommonModule&#45;&gt;D3Module</title>
<path fill="none" stroke="#000000" d="M115.3217,-122.0225C115.3217,-139.3734 115.3217,-163 115.3217,-163 115.3217,-163 207.559,-163 207.559,-163"/>
<polygon fill="#000000" stroke="#000000" points="207.5591,-166.5001 217.559,-163 207.559,-159.5001 207.5591,-166.5001"/>
</g>
</g>
</svg>
