<?xml version="1.0" encoding="UTF-8" standalone="no"?>
<!DOCTYPE svg PUBLIC "-//W3C//DTD SVG 1.1//EN"
 "http://www.w3.org/Graphics/SVG/1.1/DTD/svg11.dtd">
<!-- Generated by graphviz version 2.40.1 (20161225.0304)
 -->
<!-- Title: dependencies Pages: 1 -->
<svg width="672pt" height="284pt"
 viewBox="0.00 0.00 672.00 284.00" xmlns="http://www.w3.org/2000/svg" xmlns:xlink="http://www.w3.org/1999/xlink">
<g id="graph0" class="graph" transform="scale(1 1) rotate(0) translate(4 280)">
<title>dependencies</title>
<polygon fill="#ffffff" stroke="transparent" points="-4,4 -4,-280 668,-280 668,4 -4,4"/>
<text text-anchor="start" x="311.0091" y="-42.4" font-family="sans-serif" font-weight="bold" font-size="14.00" fill="#000000">Legend</text>
<polygon fill="#ffffb3" stroke="transparent" points="98,-10 98,-30 118,-30 118,-10 98,-10"/>
<text text-anchor="start" x="121.629" y="-15.4" font-family="sans-serif" font-size="14.00" fill="#000000"> &#160;Declarations</text>
<polygon fill="#8dd3c7" stroke="transparent" points="211,-10 211,-30 231,-30 231,-10 211,-10"/>
<text text-anchor="start" x="234.7251" y="-15.4" font-family="sans-serif" font-size="14.00" fill="#000000"> &#160;Module</text>
<polygon fill="#80b1d3" stroke="transparent" points="297,-10 297,-30 317,-30 317,-10 297,-10"/>
<text text-anchor="start" x="320.7812" y="-15.4" font-family="sans-serif" font-size="14.00" fill="#000000"> &#160;Bootstrap</text>
<polygon fill="#fdb462" stroke="transparent" points="394,-10 394,-30 414,-30 414,-10 394,-10"/>
<text text-anchor="start" x="417.6732" y="-15.4" font-family="sans-serif" font-size="14.00" fill="#000000"> &#160;Providers</text>
<polygon fill="#fb8072" stroke="transparent" points="490,-10 490,-30 510,-30 510,-10 490,-10"/>
<text text-anchor="start" x="513.7258" y="-15.4" font-family="sans-serif" font-size="14.00" fill="#000000"> &#160;Exports</text>
<g id="clust1" class="cluster">
<title>cluster_D3Module</title>
<polygon fill="none" stroke="#000000" stroke-dasharray="1,5" points="8,-70 8,-268 656,-268 656,-70 8,-70"/>
</g>
<g id="clust2" class="cluster">
<title>cluster_D3Module_declarations</title>
<polygon fill="none" stroke="#000000" points="280,-78 280,-130 648,-130 648,-78 280,-78"/>
</g>
<g id="clust6" class="cluster">
<title>cluster_D3Module_imports</title>
<polygon fill="none" stroke="#000000" points="144,-78 144,-130 272,-130 272,-78 144,-78"/>
</g>
<g id="clust7" class="cluster">
<title>cluster_D3Module_exports</title>
<polygon fill="none" stroke="#000000" points="69,-208 69,-260 598,-260 598,-208 69,-208"/>
</g>
<g id="clust9" class="cluster">
<title>cluster_D3Module_providers</title>
<polygon fill="none" stroke="#000000" points="16,-78 16,-130 136,-130 136,-78 16,-78"/>
</g>
<!-- SampleComponent -->
<g id="node1" class="node">
<title>SampleComponent</title>
<polygon fill="#ffffb3" stroke="#000000" points="639.8258,-122 516.1742,-122 516.1742,-86 639.8258,-86 639.8258,-122"/>
<text text-anchor="middle" x="578" y="-99.8" font-family="Times,serif" font-size="14.00" fill="#000000">SampleComponent</text>
</g>
<!-- D3Module -->
<g id="node4" class="node">
<title>D3Module</title>
<polygon fill="#8dd3c7" stroke="#000000" points="367.1572,-187 364.1572,-191 343.1572,-191 340.1572,-187 290.8428,-187 290.8428,-151 367.1572,-151 367.1572,-187"/>
<text text-anchor="middle" x="329" y="-164.8" font-family="Times,serif" font-size="14.00" fill="#000000">D3Module</text>
</g>
<!-- SampleComponent&#45;&gt;D3Module -->
<g id="edge1" class="edge">
<title>SampleComponent&#45;&gt;D3Module</title>
<path fill="none" stroke="#000000" d="M553.375,-122.1061C553.375,-141.3391 553.375,-169 553.375,-169 553.375,-169 377.3165,-169 377.3165,-169"/>
<polygon fill="#000000" stroke="#000000" points="377.3165,-165.5001 367.3165,-169 377.3165,-172.5001 377.3165,-165.5001"/>
</g>
<!-- SampleDirective -->
<g id="node2" class="node">
<title>SampleDirective</title>
<polygon fill="#ffffb3" stroke="#000000" points="498.0758,-122 387.9242,-122 387.9242,-86 498.0758,-86 498.0758,-122"/>
<text text-anchor="middle" x="443" y="-99.8" font-family="Times,serif" font-size="14.00" fill="#000000">SampleDirective</text>
</g>
<!-- SampleDirective&#45;&gt;D3Module -->
<g id="edge2" class="edge">
<title>SampleDirective&#45;&gt;D3Module</title>
<path fill="none" stroke="#000000" d="M416.7372,-122.027C416.7372,-138.3976 416.7372,-160 416.7372,-160 416.7372,-160 377.2276,-160 377.2276,-160"/>
<polygon fill="#000000" stroke="#000000" points="377.2276,-156.5001 367.2276,-160 377.2275,-163.5001 377.2276,-156.5001"/>
</g>
<!-- SamplePipe -->
<g id="node3" class="node">
<title>SamplePipe</title>
<polygon fill="#ffffb3" stroke="#000000" points="370.3809,-122 287.6191,-122 287.6191,-86 370.3809,-86 370.3809,-122"/>
<text text-anchor="middle" x="329" y="-99.8" font-family="Times,serif" font-size="14.00" fill="#000000">SamplePipe</text>
</g>
<!-- SamplePipe&#45;&gt;D3Module -->
<g id="edge3" class="edge">
<title>SamplePipe&#45;&gt;D3Module</title>
<path fill="none" stroke="#000000" d="M329,-122.1061C329,-122.1061 329,-140.991 329,-140.991"/>
<polygon fill="#000000" stroke="#000000" points="325.5001,-140.9909 329,-150.991 332.5001,-140.991 325.5001,-140.9909"/>
</g>
<!-- SampleComponent  -->
<g id="node6" class="node">
<title>SampleComponent </title>
<polygon fill="#fb8072" stroke="#000000" points="590.3255,-252 463.6745,-252 463.6745,-216 590.3255,-216 590.3255,-252"/>
<text text-anchor="middle" x="527" y="-229.8" font-family="Times,serif" font-size="14.00" fill="#000000">SampleComponent </text>
</g>
<!-- D3Module&#45;&gt;SampleComponent  -->
<g id="edge5" class="edge">
<title>D3Module&#45;&gt;SampleComponent </title>
<path fill="none" stroke="#000000" stroke-dasharray="5,2" d="M367.3087,-178C412.282,-178 480.8126,-178 480.8126,-178 480.8126,-178 480.8126,-205.973 480.8126,-205.973"/>
<polygon fill="#000000" stroke="#000000" points="477.3127,-205.973 480.8126,-215.973 484.3127,-205.973 477.3127,-205.973"/>
</g>
<!-- BarchartComponent  -->
<g id="node7" class="node">
<title>BarchartComponent </title>
<polygon fill="#fb8072" stroke="#000000" points="445.5246,-252 312.4754,-252 312.4754,-216 445.5246,-216 445.5246,-252"/>
<text text-anchor="middle" x="379" y="-229.8" font-family="Times,serif" font-size="14.00" fill="#000000">BarchartComponent </text>
</g>
<!-- D3Module&#45;&gt;BarchartComponent  -->
<g id="edge6" class="edge">
<title>D3Module&#45;&gt;BarchartComponent </title>
<path fill="none" stroke="#000000" stroke-dasharray="5,2" d="M339.908,-187.1061C339.908,-187.1061 339.908,-205.991 339.908,-205.991"/>
<polygon fill="#000000" stroke="#000000" points="336.408,-205.9909 339.908,-215.991 343.408,-205.991 336.408,-205.9909"/>
</g>
<!-- SampleDirective  -->
<g id="node8" class="node">
<title>SampleDirective </title>
<polygon fill="#fb8072" stroke="#000000" points="294.5766,-252 181.4234,-252 181.4234,-216 294.5766,-216 294.5766,-252"/>
<text text-anchor="middle" x="238" y="-229.8" font-family="Times,serif" font-size="14.00" fill="#000000">SampleDirective </text>
</g>
<!-- D3Module&#45;&gt;SampleDirective  -->
<g id="edge7" class="edge">
<title>D3Module&#45;&gt;SampleDirective </title>
<path fill="none" stroke="#000000" stroke-dasharray="5,2" d="M303.6378,-187.1061C303.6378,-206.3391 303.6378,-234 303.6378,-234 303.6378,-234 302.7526,-234 302.7526,-234"/>
<polygon fill="#000000" stroke="#000000" points="304.7856,-230.5001 294.7856,-234 304.7856,-237.5001 304.7856,-230.5001"/>
</g>
<!-- SamplePipe  -->
<g id="node9" class="node">
<title>SamplePipe </title>
<polygon fill="#fb8072" stroke="#000000" points="163.3816,-252 76.6184,-252 76.6184,-216 163.3816,-216 163.3816,-252"/>
<text text-anchor="middle" x="120" y="-229.8" font-family="Times,serif" font-size="14.00" fill="#000000">SamplePipe </text>
</g>
<!-- D3Module&#45;&gt;SamplePipe  -->
<g id="edge8" class="edge">
<title>D3Module&#45;&gt;SamplePipe </title>
<path fill="none" stroke="#000000" stroke-dasharray="5,2" d="M290.5521,-178C240.0407,-178 157.6783,-178 157.6783,-178 157.6783,-178 157.6783,-205.973 157.6783,-205.973"/>
<polygon fill="#000000" stroke="#000000" points="154.1784,-205.973 157.6783,-215.973 161.1784,-205.973 154.1784,-205.973"/>
</g>
<!-- CommonModule -->
<g id="node5" class="node">
<title>CommonModule</title>
<polygon fill="#8dd3c7" stroke="#000000" points="263.6681,-122 260.6681,-126 239.6681,-126 236.6681,-122 152.3319,-122 152.3319,-86 263.6681,-86 263.6681,-122"/>
<text text-anchor="middle" x="208" y="-99.8" font-family="Times,serif" font-size="14.00" fill="#000000">CommonModule</text>
</g>
<!-- CommonModule&#45;&gt;D3Module -->
<g id="edge4" class="edge">
<title>CommonModule&#45;&gt;D3Module</title>
<path fill="none" stroke="#000000" d="M222.523,-122.027C222.523,-138.3976 222.523,-160 222.523,-160 222.523,-160 280.5593,-160 280.5593,-160"/>
<polygon fill="#000000" stroke="#000000" points="280.5594,-163.5001 290.5593,-160 280.5593,-156.5001 280.5594,-163.5001"/>
</g>
<!-- D3Service -->
<g id="node10" class="node">
<title>D3Service</title>
<ellipse fill="#fdb462" stroke="#000000" cx="76" cy="-104" rx="51.5843" ry="18"/>
<text text-anchor="middle" x="76" y="-99.8" font-family="Times,serif" font-size="14.00" fill="#000000">D3Service</text>
</g>
<!-- D3Service&#45;&gt;D3Module -->
<g id="edge9" class="edge">
<title>D3Service&#45;&gt;D3Module</title>
<path fill="none" stroke="#000000" d="M102.3007,-119.7347C102.3007,-138.9716 102.3007,-169 102.3007,-169 102.3007,-169 280.7999,-169 280.7999,-169"/>
<polygon fill="#000000" stroke="#000000" points="280.7999,-172.5001 290.7999,-169 280.7999,-165.5001 280.7999,-172.5001"/>
</g>
</g>
</svg>
