<?xml version="1.0" encoding="UTF-8" standalone="no"?>
<!DOCTYPE svg PUBLIC "-//W3C//DTD SVG 1.1//EN"
 "http://www.w3.org/Graphics/SVG/1.1/DTD/svg11.dtd">
<!-- Generated by graphviz version 2.40.1 (20161225.0304)
 -->
<!-- Title: dependencies Pages: 1 -->
<svg width="587pt" height="284pt"
 viewBox="0.00 0.00 587.00 284.00" xmlns="http://www.w3.org/2000/svg" xmlns:xlink="http://www.w3.org/1999/xlink">
<g id="graph0" class="graph" transform="scale(1 1) rotate(0) translate(4 280)">
<title>dependencies</title>
<polygon fill="#ffffff" stroke="transparent" points="-4,4 -4,-280 583,-280 583,4 -4,4"/>
<text text-anchor="start" x="268.5091" y="-42.4" font-family="sans-serif" font-weight="bold" font-size="14.00" fill="#000000">Legend</text>
<polygon fill="#ffffb3" stroke="transparent" points="55.5,-10 55.5,-30 75.5,-30 75.5,-10 55.5,-10"/>
<text text-anchor="start" x="79.129" y="-15.4" font-family="sans-serif" font-size="14.00" fill="#000000"> &#160;Declarations</text>
<polygon fill="#8dd3c7" stroke="transparent" points="168.5,-10 168.5,-30 188.5,-30 188.5,-10 168.5,-10"/>
<text text-anchor="start" x="192.2251" y="-15.4" font-family="sans-serif" font-size="14.00" fill="#000000"> &#160;Module</text>
<polygon fill="#80b1d3" stroke="transparent" points="254.5,-10 254.5,-30 274.5,-30 274.5,-10 254.5,-10"/>
<text text-anchor="start" x="278.2812" y="-15.4" font-family="sans-serif" font-size="14.00" fill="#000000"> &#160;Bootstrap</text>
<polygon fill="#fdb462" stroke="transparent" points="351.5,-10 351.5,-30 371.5,-30 371.5,-10 351.5,-10"/>
<text text-anchor="start" x="375.1732" y="-15.4" font-family="sans-serif" font-size="14.00" fill="#000000"> &#160;Providers</text>
<polygon fill="#fb8072" stroke="transparent" points="447.5,-10 447.5,-30 467.5,-30 467.5,-10 447.5,-10"/>
<text text-anchor="start" x="471.2258" y="-15.4" font-family="sans-serif" font-size="14.00" fill="#000000"> &#160;Exports</text>
<g id="clust1" class="cluster">
<title>cluster_D3Module</title>
<polygon fill="none" stroke="#000000" stroke-dasharray="1,5" points="8,-70 8,-268 571,-268 571,-70 8,-70"/>
</g>
<g id="clust2" class="cluster">
<title>cluster_D3Module_declarations</title>
<polygon fill="none" stroke="#000000" points="280,-78 280,-130 563,-130 563,-78 280,-78"/>
</g>
<g id="clust5" class="cluster">
<title>cluster_D3Module_imports</title>
<polygon fill="none" stroke="#000000" points="144,-78 144,-130 272,-130 272,-78 144,-78"/>
</g>
<g id="clust6" class="cluster">
<title>cluster_D3Module_exports</title>
<polygon fill="none" stroke="#000000" points="133,-208 133,-260 423,-260 423,-208 133,-208"/>
</g>
<g id="clust8" class="cluster">
<title>cluster_D3Module_providers</title>
<polygon fill="none" stroke="#000000" points="16,-78 16,-130 136,-130 136,-78 16,-78"/>
</g>
<!-- BarchartComponent -->
<g id="node1" class="node">
<title>BarchartComponent</title>
<polygon fill="#ffffb3" stroke="#000000" points="554.5255,-122 425.4745,-122 425.4745,-86 554.5255,-86 554.5255,-122"/>
<text text-anchor="middle" x="490" y="-99.8" font-family="Times,serif" font-size="14.00" fill="#000000">BarchartComponent</text>
</g>
<!-- D3Module -->
<g id="node3" class="node">
<title>D3Module</title>
<polygon fill="#8dd3c7" stroke="#000000" points="313.1572,-187 310.1572,-191 289.1572,-191 286.1572,-187 236.8428,-187 236.8428,-151 313.1572,-151 313.1572,-187"/>
<text text-anchor="middle" x="275" y="-164.8" font-family="Times,serif" font-size="14.00" fill="#000000">D3Module</text>
</g>
<!-- BarchartComponent&#45;&gt;D3Module -->
<g id="edge1" class="edge">
<title>BarchartComponent&#45;&gt;D3Module</title>
<path fill="none" stroke="#000000" d="M490,-122.1061C490,-141.3391 490,-169 490,-169 490,-169 323.4377,-169 323.4377,-169"/>
<polygon fill="#000000" stroke="#000000" points="323.4377,-165.5001 313.4377,-169 323.4377,-172.5001 323.4377,-165.5001"/>
</g>
<!-- SGBarComponent -->
<g id="node2" class="node">
<title>SGBarComponent</title>
<polygon fill="#ffffb3" stroke="#000000" points="407.9342,-122 288.0658,-122 288.0658,-86 407.9342,-86 407.9342,-122"/>
<text text-anchor="middle" x="348" y="-99.8" font-family="Times,serif" font-size="14.00" fill="#000000">SGBarComponent</text>
</g>
<!-- SGBarComponent&#45;&gt;D3Module -->
<g id="edge2" class="edge">
<title>SGBarComponent&#45;&gt;D3Module</title>
<path fill="none" stroke="#000000" d="M300.8058,-122.1061C300.8058,-122.1061 300.8058,-140.991 300.8058,-140.991"/>
<polygon fill="#000000" stroke="#000000" points="297.3058,-140.9909 300.8058,-150.991 304.3058,-140.991 297.3058,-140.9909"/>
</g>
<!-- BarchartComponent  -->
<g id="node5" class="node">
<title>BarchartComponent </title>
<polygon fill="#fb8072" stroke="#000000" points="414.5246,-252 281.4754,-252 281.4754,-216 414.5246,-216 414.5246,-252"/>
<text text-anchor="middle" x="348" y="-229.8" font-family="Times,serif" font-size="14.00" fill="#000000">BarchartComponent </text>
</g>
<!-- D3Module&#45;&gt;BarchartComponent  -->
<g id="edge4" class="edge">
<title>D3Module&#45;&gt;BarchartComponent </title>
<path fill="none" stroke="#000000" stroke-dasharray="5,2" d="M297.4079,-187.1061C297.4079,-187.1061 297.4079,-205.991 297.4079,-205.991"/>
<polygon fill="#000000" stroke="#000000" points="293.908,-205.9909 297.4079,-215.991 300.908,-205.991 293.908,-205.9909"/>
</g>
<!-- SGBarComponent  -->
<g id="node6" class="node">
<title>SGBarComponent </title>
<polygon fill="#fb8072" stroke="#000000" points="263.4334,-252 140.5666,-252 140.5666,-216 263.4334,-216 263.4334,-252"/>
<text text-anchor="middle" x="202" y="-229.8" font-family="Times,serif" font-size="14.00" fill="#000000">SGBarComponent </text>
</g>
<!-- D3Module&#45;&gt;SGBarComponent  -->
<g id="edge5" class="edge">
<title>D3Module&#45;&gt;SGBarComponent </title>
<path fill="none" stroke="#000000" stroke-dasharray="5,2" d="M250.0693,-187.1061C250.0693,-187.1061 250.0693,-205.991 250.0693,-205.991"/>
<polygon fill="#000000" stroke="#000000" points="246.5693,-205.9909 250.0693,-215.991 253.5693,-205.991 246.5693,-205.9909"/>
</g>
<!-- CommonModule -->
<g id="node4" class="node">
<title>CommonModule</title>
<polygon fill="#8dd3c7" stroke="#000000" points="263.6681,-122 260.6681,-126 239.6681,-126 236.6681,-122 152.3319,-122 152.3319,-86 263.6681,-86 263.6681,-122"/>
<text text-anchor="middle" x="208" y="-99.8" font-family="Times,serif" font-size="14.00" fill="#000000">CommonModule</text>
</g>
<!-- CommonModule&#45;&gt;D3Module -->
<g id="edge3" class="edge">
<title>CommonModule&#45;&gt;D3Module</title>
<path fill="none" stroke="#000000" d="M250.2528,-122.1061C250.2528,-122.1061 250.2528,-140.991 250.2528,-140.991"/>
<polygon fill="#000000" stroke="#000000" points="246.7529,-140.9909 250.2528,-150.991 253.7529,-140.991 246.7529,-140.9909"/>
</g>
<!-- D3Service -->
<g id="node7" class="node">
<title>D3Service</title>
<ellipse fill="#fdb462" stroke="#000000" cx="76" cy="-104" rx="51.5843" ry="18"/>
<text text-anchor="middle" x="76" y="-99.8" font-family="Times,serif" font-size="14.00" fill="#000000">D3Service</text>
</g>
<!-- D3Service&#45;&gt;D3Module -->
<g id="edge6" class="edge">
<title>D3Service&#45;&gt;D3Module</title>
<path fill="none" stroke="#000000" d="M76,-122.1061C76,-141.3391 76,-169 76,-169 76,-169 226.6308,-169 226.6308,-169"/>
<polygon fill="#000000" stroke="#000000" points="226.6308,-172.5001 236.6308,-169 226.6308,-165.5001 226.6308,-172.5001"/>
</g>
</g>
</svg>
